<svg width="34" height="30" viewBox="0 0 34 30" fill="none" xmlns="http://www.w3.org/2000/svg">
<path d="M17 0.166992C8.0056 0.166992 0.714294 5.74115 0.714294 12.6171C0.714294 17.0626 3.76254 20.9632 8.34791 23.1658C8.09846 24 6.74486 28.5321 6.691 28.8882C6.691 28.8882 6.65858 29.1557 6.83725 29.2577C7.01593 29.3598 7.22607 29.2805 7.22607 29.2805C7.73845 29.2111 13.1677 25.5134 14.1074 24.8714C15.0462 25.0003 16.0128 25.0672 17 25.0672C25.9944 25.0672 33.2857 19.4932 33.2857 12.6171C33.2857 5.74115 25.9944 0.166992 17 0.166992Z" fill="black"/>
<path d="M8.28971 16.4527C7.77744 16.4527 7.36085 16.0795 7.36085 15.6207V10.4446H5.91153C5.40886 10.4446 5.00001 10.0619 5.00001 9.59153C5.00001 9.12119 5.40902 8.73842 5.91153 8.73842H10.6679C11.1706 8.73842 11.5794 9.12119 11.5794 9.59153C11.5794 10.0619 11.1704 10.4446 10.6679 10.4446H9.21857V15.6207C9.21857 16.0795 8.80197 16.4527 8.28971 16.4527ZM16.4345 16.4414C16.0472 16.4414 15.7509 16.2938 15.6616 16.0566L15.2016 14.9271L12.3692 14.927L11.909 16.0572C11.82 16.294 11.5238 16.4414 11.1365 16.4414C10.9328 16.4416 10.7314 16.4006 10.5461 16.3211C10.29 16.2104 10.0439 15.9057 10.3259 15.084L12.5477 9.5985C12.7043 9.18131 13.1797 8.75149 13.7847 8.73857C14.3914 8.75134 14.8668 9.18131 15.0236 9.59937L17.2445 15.0824C17.5272 15.906 17.281 16.2108 17.025 16.3213C16.8396 16.4006 16.6383 16.4415 16.4345 16.4414ZM14.7132 13.3838L13.7854 10.9116L12.8577 13.3838H14.7132ZM18.7393 16.3256C18.2484 16.3256 17.8492 15.9673 17.8492 15.527V9.60968C17.8492 9.12918 18.2746 8.73842 18.7974 8.73842C19.3202 8.73842 19.7456 9.12918 19.7456 9.60968V14.7283H21.7194C22.2103 14.7283 22.6096 15.0867 22.6096 15.527C22.6096 15.9673 22.2103 16.3256 21.7194 16.3256H18.7393ZM23.8998 16.4414C23.3875 16.4414 22.9709 16.0506 22.9709 15.5701V9.60968C22.9709 9.12918 23.3875 8.73842 23.8998 8.73842C24.412 8.73842 24.8286 9.12918 24.8286 9.60968V11.4823L27.4201 9.05149C27.5534 8.92647 27.7366 8.85764 27.9353 8.85764C28.1672 8.85764 28.4001 8.95144 28.5745 9.11495C28.7372 9.26742 28.8343 9.4636 28.8476 9.66733C28.8611 9.8728 28.7882 10.0611 28.6427 10.1978L26.526 12.1829L28.8123 15.0241C28.8861 15.1153 28.9399 15.2193 28.9705 15.3301C29.0012 15.4409 29.008 15.5563 28.9907 15.6696C28.9741 15.783 28.9337 15.8921 28.8719 15.9908C28.81 16.0894 28.7279 16.1755 28.6303 16.2442C28.4696 16.3587 28.2733 16.4205 28.0716 16.42C27.9276 16.4207 27.7856 16.3897 27.6567 16.3295C27.5279 16.2694 27.4158 16.1818 27.3296 16.0737L25.1512 13.3664L24.8289 13.6687V15.5697C24.8286 15.8008 24.7307 16.0223 24.5565 16.1857C24.3823 16.3491 24.1461 16.4411 23.8998 16.4414Z" fill="#FFE812"/>
</svg>
