<svg width="220" height="42" viewBox="0 0 220 42" fill="none" xmlns="http://www.w3.org/2000/svg">
<path d="M0 0.140789C0 0.246395 0.8448 3.5905 1.9008 7.63864C2.9568 11.6868 5.28 20.7687 7.04 27.8441C8.8 34.9195 10.3488 40.9741 10.4192 41.2909C10.5952 41.8542 11.1584 41.9246 16.192 41.9246H21.7888L22.6688 39.0029C23.1264 37.4188 24.7456 31.7866 26.2592 26.5065C27.7376 21.2263 29.0752 17.0373 29.216 17.1781C29.3216 17.319 29.9552 19.3606 30.5888 21.6839C31.2224 24.0072 32.208 27.4217 32.736 29.2521C33.264 31.0826 34.0384 33.7931 34.4256 35.2363C34.848 36.6796 35.4112 38.7917 35.728 39.8829L36.2912 41.9246H41.888H47.4848L47.8368 40.5869C48.576 37.806 57.3408 2.25286 57.552 1.16162L57.7984 0.0351868H52.6592C49.8784 0.0351868 47.4848 0.175991 47.3792 0.316795C47.3088 0.4576 46.8864 2.18246 46.4992 4.08332C46.112 6.01938 45.056 11.0883 44.176 15.3477C43.296 19.607 42.2752 24.676 41.888 26.5769C41.5008 28.4777 41.1488 30.097 41.0784 30.1674C41.008 30.2378 39.5648 24.6408 37.84 17.7062C36.1504 10.8067 34.4256 3.97771 34.0384 2.56967L33.3696 -1.52588e-05L29.2864 0.105587L25.2384 0.211193L23.936 5.13935C23.1968 7.84984 21.472 14.4325 20.0992 19.7478C18.6912 25.0632 17.4592 29.745 17.3536 30.1322C17.248 30.5194 16.016 25.4504 14.5728 18.5158C13.1648 11.722 11.7216 4.85775 11.3696 3.20329L10.7008 0.211193L5.3504 0.105587C2.3936 0.0703888 0 0.0703888 0 0.140789Z" fill="#7A001F"/>
<path d="M60.8959 20.9799V41.9246H66.7039H72.5119V20.9799V0.0351868H66.7039H60.8959V20.9799Z" fill="#7A001F"/>
<path d="M77.0881 20.9799V41.9246H82.5441H88.0001V29.4282C88.0001 22.5639 88.1057 16.9317 88.2817 16.9317C88.4225 16.9317 89.3729 18.2342 90.4289 19.8534C91.4497 21.4375 95.2513 27.0697 98.8417 32.3146L105.318 41.9246H110.211H115.104V20.9799V0.0351868H109.648H104.192L104.157 3.20329C104.122 4.92815 104.051 6.5122 104.016 6.72341C103.981 6.89941 103.91 11.0531 103.875 15.8757L103.84 24.7112L98.3489 16.5093C95.3217 12.0036 91.5553 6.4418 90.0065 4.15372L87.1553 0.0351868H82.1217H77.0881V20.9799Z" fill="#7A001F"/>
<path d="M119.328 20.9786V41.9233H126.72H134.112V40.2336C134.112 36.9599 133.76 36.0095 132.387 35.1646C130.733 34.179 128.832 32.3837 128.832 31.8205C128.832 31.5741 129.465 31.8557 130.381 32.5597C132.387 34.1086 134.71 34.6718 136.681 34.1438C138.758 33.5806 141.011 31.9261 142.032 30.1661C143.51 27.6668 143.44 27.5612 139.321 27.6316C135.942 27.6668 135.485 27.5612 132.352 26.3643C130.521 25.6603 128.55 25.0267 127.952 24.9563C126.896 24.8507 126.896 24.8507 126.966 26.6107C127.001 28.23 126.966 28.3004 126.509 27.702C125.805 26.7516 125.875 24.7803 126.896 16.7192C127.389 12.8823 127.776 9.50299 127.776 9.22138C127.776 8.83416 128.726 8.76376 132.985 8.90457C138.512 9.08057 140.518 9.57339 141.997 11.263C142.877 12.2487 143.897 17.388 144.179 22.4218C144.39 25.6251 144.32 26.6459 143.827 28.1244C143.017 30.5533 140.905 33.1582 138.582 34.6718C136.505 35.9743 136.224 36.6431 136.224 40.2688V41.9937L137.737 41.7472C145.763 40.4448 151.149 35.235 152.944 26.998C153.859 22.8442 153.542 15.9448 152.275 12.3543C150.586 7.53172 147.664 4.01161 143.827 2.14595C140.061 0.280285 138.371 0.0690765 128.409 0.0338745H119.328V20.9786Z" fill="#7A001F"/>
<path d="M156.64 20.9799V41.9246H170.192H183.744V37.8764V33.8283H175.296H166.813L166.918 29.1465L167.024 24.5L173.818 24.3944L180.576 24.324V20.2759V16.2277H173.712H166.848V12.0036V7.77944H175.12H183.392V3.90731V0.0351868H170.016H156.64V20.9799Z" fill="#7A001F"/>
<path d="M187.158 9.25789C187.018 14.3621 186.912 23.796 186.912 30.2026V41.9246H192.192H197.472V34.5323V27.1401H200.394H203.28L206.131 34.4619L209.018 41.7486L214.509 41.8542C217.571 41.8894 220 41.819 220 41.643C220 41.3613 215.283 30.5194 213.066 25.732C212.608 24.7464 212.608 24.5 212.995 24.3592C213.242 24.2888 214.192 23.5144 215.107 22.6695C217.642 20.3111 218.416 18.0582 218.416 13.2356C218.416 9.6803 218.346 9.22269 217.43 7.49783C215.424 3.69611 212.678 1.58404 208.349 0.563206C206.624 0.175991 203.843 0.0351868 196.733 0.0351868H187.37L187.158 9.25789ZM205.568 8.69467C207.398 9.75071 208.138 11.0179 208.278 13.306C208.384 14.8549 208.243 15.6645 207.75 16.5797C206.694 18.4806 205.322 19.1142 201.766 19.255C197.12 19.431 197.472 19.9238 197.472 13.3412V7.67384L200.957 7.84984C203.526 7.99065 204.723 8.20185 205.568 8.69467Z" fill="#7A001F"/>
</svg>
