<svg width="16" height="16" viewBox="0 0 16 16" fill="none" xmlns="http://www.w3.org/2000/svg">
<path opacity="0.2" d="M11.8915 9.89278C10.8359 10.8805 9.44431 11.43 7.99867 11.43C6.55303 11.43 5.16144 10.8805 4.10581 9.89278C3.56877 9.38563 3.18304 8.73935 2.9916 8.02593C2.80016 7.31251 2.81052 6.55994 3.02153 5.85206L3.13367 5.47278C4.0351 5.08635 5.65724 4.81421 8.0001 5.99992C10.5615 7.29706 12.2622 6.8492 13.1015 6.41706C13.1945 7.05102 13.1331 7.69806 12.9224 8.30318C12.7117 8.9083 12.3581 9.45362 11.8915 9.89278Z" fill="#7A001F"/>
<path d="M13.5237 5.69071L11.9687 0.41C11.9338 0.291689 11.8616 0.187826 11.7629 0.113928C11.6642 0.04003 11.5441 6.38058e-05 11.4208 0H4.57938C4.45605 6.38058e-05 4.33604 0.04003 4.2373 0.113928C4.13855 0.187826 4.06637 0.291689 4.03153 0.41L2.47653 5.69071C2.23255 6.50011 2.21979 7.3616 2.43966 8.17787C2.65954 8.99414 3.1033 9.73266 3.72081 10.31C4.73666 11.2625 6.04178 11.8481 7.42867 11.9736V14.8571H5.14295C4.9914 14.8571 4.84606 14.9173 4.73889 15.0245C4.63173 15.1317 4.57153 15.277 4.57153 15.4286C4.57153 15.5801 4.63173 15.7255 4.73889 15.8326C4.84606 15.9398 4.9914 16 5.14295 16H10.8572C11.0088 16 11.1541 15.9398 11.2613 15.8326C11.3685 15.7255 11.4287 15.5801 11.4287 15.4286C11.4287 15.277 11.3685 15.1317 11.2613 15.0245C11.1541 14.9173 11.0088 14.8571 10.8572 14.8571H8.57153V11.9736C9.95844 11.8482 11.2636 11.2626 12.2794 10.31C12.8968 9.73256 13.3404 8.99404 13.5603 8.17781C13.7802 7.36157 13.7675 6.50012 13.5237 5.69071ZM5.00653 1.14286H10.9937L12.4287 6.01357C12.4351 6.035 12.4408 6.05643 12.4465 6.07786C10.9165 6.62643 9.19367 5.96357 8.25867 5.49C6.45938 4.57929 5.03081 4.46357 3.97724 4.63786L5.00653 1.14286ZM11.5001 9.475C10.5512 10.3635 9.29999 10.8578 8.0001 10.8578C6.7002 10.8578 5.44896 10.3635 4.5001 9.475C4.03801 9.04197 3.70619 8.48838 3.54211 7.87673C3.37803 7.26508 3.38822 6.61974 3.57153 6.01357L3.60367 5.905C4.46081 5.615 5.82295 5.53786 7.74153 6.51C8.53795 6.91357 9.82438 7.42786 11.2008 7.42786C11.6608 7.4301 12.1189 7.36758 12.5615 7.24214C12.5032 8.09398 12.1239 8.89197 11.5001 9.475Z" fill="#7A001F"/>
</svg>
