<svg width="24" height="24" viewBox="0 0 24 24" fill="none" xmlns="http://www.w3.org/2000/svg">
<path d="M4.51902 20.008L21 20V16.5C20.4696 16.5 19.9609 16.2893 19.5858 15.9142C19.2107 15.5391 19 15.0304 19 14.5C19 13.9696 19.2107 13.4609 19.5858 13.0858C19.9609 12.7107 20.4696 12.5 21 12.5V9H4.27802" stroke="white" stroke-width="2" stroke-linecap="round" stroke-linejoin="round"/>
<path d="M21 9.00079L11.615 4.00879C9.103 4.12879 6.857 5.42879 5.288 7.43379C3.865 9.25379 3 11.6548 3 14.2878C3 16.4048 3.56 18.3728 4.519 20.0088M15 13.0008V13.0108M8 13.0008V13.0108M11 16.0008V16.0108" stroke="white" stroke-width="2" stroke-linecap="round" stroke-linejoin="round"/>
</svg>
