<svg width="24" height="24" viewBox="0 0 24 24" fill="none" xmlns="http://www.w3.org/2000/svg">
<path d="M18 7V4C18 3.46957 17.7893 2.96086 17.4142 2.58579C17.0391 2.21071 16.5304 2 16 2C15.4696 2 14.9609 2.21071 14.5858 2.58579C14.2107 2.96086 14 3.46957 14 4M14 10C14 10 16 10 18 12C20 10 22 10 22 10" stroke="white" stroke-width="2" stroke-linecap="round" stroke-linejoin="round"/>
<path d="M22 10C22 16.6 16.6 22 10 22C5.6 22 2 19.3 2 16V15.6C3.3 17.1 5 18 7 18C10.9 18 14 14.4 14 10C14 8.3 15.3 7 17 7H19C20.7 7 22 8.3 22 10Z" stroke="white" stroke-width="2" stroke-linecap="round" stroke-linejoin="round"/>
</svg>
