<svg width="24" height="24" viewBox="0 0 24 24" fill="none" xmlns="http://www.w3.org/2000/svg">
<path opacity="0.2" d="M17.1075 14.4843C15.722 15.7806 13.8955 16.5019 11.9981 16.5019C10.1007 16.5019 8.27427 15.7806 6.88875 14.4843C6.18388 13.8187 5.67762 12.9704 5.42635 12.0341C5.17509 11.0977 5.18869 10.11 5.46563 9.18088L5.61282 8.68307C6.79594 8.17588 8.925 7.81869 12 9.37494C15.3619 11.0774 17.5941 10.4896 18.6956 9.92244C18.8177 10.7545 18.737 11.6037 18.4605 12.398C18.184 13.1922 17.7199 13.9079 17.1075 14.4843Z" fill="white"/>
<path d="M19.2497 8.96906L17.2088 2.03812C17.163 1.88284 17.0683 1.74652 16.9387 1.64953C16.8091 1.55254 16.6516 1.50008 16.4897 1.5H7.51031C7.34844 1.50008 7.19093 1.55254 7.06133 1.64953C6.93173 1.74652 6.83698 1.88284 6.79125 2.03812L4.75031 8.96906C4.4301 10.0314 4.41334 11.1621 4.70193 12.2335C4.99052 13.3048 5.57295 14.2741 6.38344 15.0319C7.71674 16.282 9.42971 17.0506 11.25 17.2153V21H8.25C8.05109 21 7.86032 21.079 7.71967 21.2197C7.57902 21.3603 7.5 21.5511 7.5 21.75C7.5 21.9489 7.57902 22.1397 7.71967 22.2803C7.86032 22.421 8.05109 22.5 8.25 22.5H15.75C15.9489 22.5 16.1397 22.421 16.2803 22.2803C16.421 22.1397 16.5 21.9489 16.5 21.75C16.5 21.5511 16.421 21.3603 16.2803 21.2197C16.1397 21.079 15.9489 21 15.75 21H12.75V17.2153C14.5703 17.0507 16.2833 16.2822 17.6166 15.0319C18.4269 14.274 19.0092 13.3047 19.2978 12.2334C19.5863 11.1621 19.5697 10.0314 19.2497 8.96906ZM8.07094 3H15.9291L17.8125 9.39281C17.8209 9.42094 17.8284 9.44906 17.8359 9.47719C15.8278 10.1972 13.5666 9.32719 12.3394 8.70563C9.97781 7.51031 8.10281 7.35844 6.72 7.58719L8.07094 3ZM16.5938 13.9359C15.3484 15.1021 13.7061 15.7509 12 15.7509C10.2939 15.7509 8.65163 15.1021 7.40625 13.9359C6.79976 13.3676 6.36425 12.641 6.14889 11.8382C5.93354 11.0354 5.94691 10.1884 6.1875 9.39281L6.22969 9.25031C7.35469 8.86969 9.1425 8.76844 11.6606 10.0444C12.7059 10.5741 14.3944 11.2491 16.2009 11.2491C16.8047 11.252 17.4059 11.1699 17.9869 11.0053C17.9104 12.1234 17.4125 13.1707 16.5938 13.9359Z" fill="white"/>
</svg>
